<svg width="180" height="20" viewBox="0 0 180 20" fill="none" xmlns="http://www.w3.org/2000/svg">
<g clip-path="url(#clip0)">
<path d="M8.78174 15.4947L9.78174 17.6547L9.53174 17.7547C8.53287 18.4932 7.32393 18.8926 6.08174 18.8947C4.47851 18.8947 2.94094 18.2579 1.80728 17.1242C0.673625 15.9905 0.0367432 14.453 0.0367432 12.8497C0.0367432 11.2465 0.673625 9.70893 1.80728 8.57527C2.94094 7.44162 4.47851 6.80473 6.08174 6.80473C7.31411 6.79988 8.51706 7.18105 9.52174 7.89473L9.77174 8.01473L8.77174 10.1047L8.43174 9.86473C7.77401 9.31395 6.9395 9.01921 6.08174 9.03473C5.07392 9.03473 4.10738 9.43509 3.39474 10.1477C2.6821 10.8604 2.28174 11.8269 2.28174 12.8347C2.28174 13.8426 2.6821 14.8091 3.39474 15.5217C4.10738 16.2344 5.07392 16.6347 6.08174 16.6347C6.95683 16.623 7.80239 16.3165 8.48174 15.7647L8.78174 15.4947Z" fill="#8A5137"/>
<path d="M29.8818 12.8946C29.8601 14.0554 29.4958 15.184 28.8346 16.1384C28.1735 17.0928 27.2451 17.8306 26.1659 18.259C25.0868 18.6874 23.9051 18.7872 22.7694 18.5461C21.6336 18.3049 20.5945 17.7335 19.7826 16.9035C18.9706 16.0736 18.4221 15.0222 18.2058 13.8815C17.9896 12.7407 18.1153 11.5615 18.5672 10.492C19.0192 9.42252 19.7771 8.51044 20.7458 7.87038C21.7145 7.23031 22.8507 6.89082 24.0118 6.89456C25.5846 6.91565 27.0851 7.5587 28.1851 8.68307C29.2851 9.80744 29.8951 11.3216 29.8818 12.8946ZM27.7518 12.8946C27.734 12.1565 27.4989 11.4402 27.0758 10.8352C26.6526 10.2303 26.0604 9.76371 25.3732 9.49393C24.6861 9.22416 23.9345 9.16321 23.2129 9.31872C22.4912 9.47423 21.8315 9.83929 21.3164 10.3681C20.8014 10.897 20.4538 11.5661 20.3174 12.2916C20.181 13.0171 20.2618 13.7668 20.5496 14.4466C20.8374 15.1264 21.3194 15.7061 21.9353 16.1131C22.5512 16.5201 23.2735 16.7363 24.0118 16.7346C24.5095 16.728 25.001 16.6235 25.4584 16.427C25.9157 16.2305 26.3298 15.9458 26.6771 15.5892C27.0244 15.2327 27.2981 14.8111 27.4825 14.3488C27.6669 13.8864 27.7584 13.3923 27.7518 12.8946Z" fill="#8A5137"/>
<path d="M80.4717 12.9647C80.4835 13.3242 80.4499 13.6837 80.3717 14.0347H70.9117C71.1133 14.836 71.5752 15.5477 72.2249 16.0581C72.8747 16.5685 73.6755 16.8487 74.5017 16.8547C75.2184 16.8627 75.919 16.6421 76.5017 16.2247H79.5017C78.9856 17.0906 78.2535 17.8075 77.377 18.3053C76.5005 18.8032 75.5097 19.0649 74.5017 19.0647C73.2884 19.0866 72.0961 18.7466 71.0767 18.0882C70.0573 17.4298 69.2571 16.4828 68.778 15.3678C68.299 14.2529 68.1627 13.0205 68.3867 11.8279C68.6107 10.6352 69.1848 9.53628 70.0358 8.67114C70.8867 7.80599 71.976 7.21384 73.1648 6.97016C74.3536 6.72648 75.5881 6.84231 76.7108 7.3029C77.8335 7.76348 78.7936 8.54795 79.4688 9.5563C80.1439 10.5646 80.5035 11.7512 80.5017 12.9647H80.4717ZM70.9117 11.8747H78.1417C77.9224 11.0746 77.4486 10.3676 76.7919 9.86066C76.1352 9.35369 75.3313 9.0743 74.5017 9.06471C73.6782 9.07525 72.8808 9.3559 72.2323 9.86356C71.5837 10.3712 71.1198 11.0778 70.9117 11.8747Z" fill="#8A5137"/>
<path d="M100.432 12.9647C100.444 13.3242 100.41 13.6837 100.332 14.0347H90.8718C91.0733 14.836 91.5352 15.5477 92.185 16.0581C92.8347 16.5685 93.6355 16.8487 94.4618 16.8547C95.1785 16.8627 95.8791 16.6421 96.4618 16.2247H99.4618C98.9421 17.0986 98.2022 17.8207 97.316 18.3191C96.4299 18.8175 95.4284 19.0746 94.4118 19.0647C93.1985 19.0866 92.0061 18.7466 90.9867 18.0882C89.9674 17.4298 89.1671 16.4828 88.6881 15.3678C88.209 14.2529 88.0728 13.0205 88.2968 11.8279C88.5208 10.6352 89.0948 9.53628 89.9458 8.67114C90.7968 7.80599 91.8861 7.21384 93.0749 6.97016C94.2637 6.72648 95.4981 6.84231 96.6208 7.3029C97.7435 7.76348 98.7036 8.54795 99.3788 9.5563C100.054 10.5646 100.414 11.7512 100.412 12.9647H100.432ZM90.8718 11.8747H98.0818C97.8625 11.0746 97.3887 10.3676 96.7319 9.86066C96.0752 9.35369 95.2713 9.0743 94.4418 9.06471C93.6217 9.07959 92.8289 9.36223 92.1844 9.86955C91.5398 10.3769 91.0789 11.081 90.8718 11.8747Z" fill="#8A5137"/>
<path d="M136.082 6.8147V18.9747H133.872V17.6147C132.847 18.4992 131.536 18.9824 130.182 18.9747C128.59 18.9747 127.064 18.3426 125.939 17.2173C124.814 16.0921 124.182 14.566 124.182 12.9747C124.182 11.3834 124.814 9.85728 125.939 8.73206C127.064 7.60684 128.59 6.9747 130.182 6.9747C131.536 6.96703 132.847 7.45018 133.872 8.3347V6.8147H136.082ZM133.872 13.4647V12.4647C133.745 11.506 133.258 10.6314 132.51 10.0182C131.762 9.40511 130.809 9.09935 129.844 9.16294C128.879 9.22654 127.974 9.65473 127.313 10.3607C126.652 11.0667 126.285 11.9976 126.285 12.9647C126.285 13.9318 126.652 14.8627 127.313 15.5687C127.974 16.2747 128.879 16.7029 129.844 16.7665C130.809 16.83 131.762 16.5243 132.51 15.9112C133.258 15.298 133.745 14.4234 133.872 13.4647Z" fill="#8A5137"/>
<path d="M152.772 15.5445L153.772 17.7045L153.532 17.8045C152.532 18.5411 151.324 18.9404 150.082 18.9445C148.479 18.9445 146.941 18.3077 145.807 17.174C144.674 16.0403 144.037 14.5028 144.037 12.8995C144.037 11.2963 144.674 9.75874 145.807 8.62508C146.941 7.49142 148.479 6.85454 150.082 6.85454C151.317 6.84961 152.523 7.23068 153.532 7.94454L153.772 8.06454L152.772 10.1545L152.432 9.91454C151.78 9.36671 150.953 9.07205 150.102 9.08454C149.094 9.08454 148.127 9.48489 147.415 10.1975C146.702 10.9102 146.302 11.8767 146.302 12.8845C146.302 13.8924 146.702 14.8589 147.415 15.5715C148.127 16.2842 149.094 16.6845 150.102 16.6845C150.977 16.6728 151.822 16.3663 152.502 15.8145L152.772 15.5445Z" fill="#8A5137"/>
<path d="M173.682 12.9047C173.693 13.2641 173.66 13.6236 173.582 13.9747H164.082C164.283 14.7759 164.745 15.4876 165.395 15.998C166.045 16.5084 166.846 16.7886 167.672 16.7947C168.388 16.8027 169.089 16.582 169.672 16.1647H172.672C172.151 17.0371 171.41 17.7582 170.524 18.2564C169.639 18.7546 168.638 19.0125 167.622 19.0047C166.408 19.0265 165.216 18.6866 164.197 18.0282C163.177 17.3698 162.377 16.4227 161.898 15.3078C161.419 14.1928 161.283 12.9605 161.507 11.7678C161.731 10.5752 162.305 9.47622 163.156 8.61108C164.007 7.74593 165.096 7.15378 166.285 6.9101C167.474 6.66642 168.708 6.78225 169.831 7.24284C170.953 7.70342 171.914 8.48789 172.589 9.49624C173.264 10.5046 173.624 11.6911 173.622 12.9047H173.682ZM164.082 11.8147H171.312C171.092 11.0145 170.619 10.3076 169.962 9.8006C169.305 9.29363 168.501 9.01424 167.672 9.00466C166.848 9.01519 166.051 9.29585 165.402 9.8035C164.754 10.3112 164.29 11.0177 164.082 11.8147Z" fill="#8A5137"/>
<path d="M41.1817 8.96461V18.9646H39.0817V8.96461V6.75461C39.0814 5.95216 39.242 5.15781 39.5542 4.41855C39.8663 3.67929 40.3235 3.01014 40.8988 2.45071C41.474 1.89128 42.1557 1.45293 42.9034 1.1616C43.6511 0.870263 44.4496 0.73187 45.2517 0.754606V3.04461C44.7411 3.01764 44.2304 3.09399 43.75 3.26909C43.2696 3.44418 42.8295 3.71442 42.4561 4.06362C42.0826 4.41281 41.7834 4.83379 41.5765 5.30133C41.3695 5.76887 41.2591 6.27337 41.2517 6.78461L41.1817 8.96461Z" fill="#8A5137"/>
<path d="M45.5418 9.85474H37.1818V11.8847H45.5418V9.85474Z" fill="#8A5137"/>
<path d="M56.6017 8.96457V18.9646H54.4617V8.96457V6.75458C54.4614 5.953 54.6218 5.15949 54.9333 4.42091C55.2447 3.68233 55.7011 3.01364 56.2753 2.45435C56.8495 1.89505 57.5299 1.45649 58.2765 1.16454C59.023 0.872599 59.8204 0.7332 60.6217 0.754575V3.04457C60.1112 3.01761 59.6004 3.09396 59.12 3.26906C58.6396 3.44415 58.1995 3.71439 57.8261 4.06359C57.4526 4.41278 57.1534 4.83376 56.9465 5.3013C56.7395 5.76884 56.6291 6.27334 56.6217 6.78458L56.6017 8.96457Z" fill="#8A5137"/>
<path d="M60.9517 9.85474H52.5917V11.8847H60.9517V9.85474Z" fill="#8A5137"/>
<path d="M112.222 8.99461V18.9946H110.082V8.99461V6.78461C110.081 5.98303 110.242 5.18952 110.553 4.45094C110.865 3.71235 111.321 3.04367 111.895 2.48438C112.469 1.92508 113.15 1.48652 113.896 1.19457C114.643 0.902629 115.44 0.763229 116.242 0.784605V3.0646C115.731 3.03764 115.22 3.11399 114.74 3.28909C114.26 3.46418 113.82 3.73442 113.446 4.08361C113.073 4.43281 112.773 4.85379 112.566 5.32133C112.36 5.78887 112.249 6.29337 112.242 6.8046L112.222 8.99461Z" fill="#8A5137"/>
<path d="M116.582 9.88477H108.222V11.9148H116.582V9.88477Z" fill="#8A5137"/>
<path d="M176.172 2.54468V2.93468H175.172V5.49468H174.752V2.93468H173.752V2.54468H176.172Z" fill="#8A5137"/>
<path d="M179.582 2.55469V5.48469H179.182V3.48469L178.272 5.48469L177.392 3.48469V5.48469H176.992V2.55469H177.472L178.272 4.45469L179.112 2.55469H179.582Z" fill="#8A5137"/>
</g>
<defs>
<clipPath id="clip0">
<rect width="179.55" height="18.3" fill="white" transform="translate(0.041748 0.764648)"/>
</clipPath>
</defs>
</svg>
